# File units = meters
mtllib Part Studio 24 - PB-0-403-F.mtl
g PB-0-403-F
v 0.1778 -0.1778 0.0762 
v 0.1778 -0.1778 0 
v 0.1778 0.1778 0 
v 0.1778 0.1778 0.0762 
v -0.1778 0.1778 0 
v -0.1778 -0.1778 0 
v -0.1778 0.1778 0.0762 
v -0.1778 -0.1778 0.0762 
v 0.117259 0.117259 0.127 
v 0.117259 -0.117259 0.127 
v -0.117259 0.117259 0.127 
v -0.117259 -0.117259 0.127 
v 0.110909 0.110909 0.127 
v 0.110909 -0.110909 0.127 
v -0.110909 0.110909 0.127 
v -0.110909 -0.110909 0.127 
v 0.110909 -0.110909 0.254 
v 0.110909 0.110909 0.254 
v -0.110909 0.110909 0.254 
v -0.110909 -0.110909 0.254 
v -0.0508 -0.0508 0.254 
v 0.0508 -0.0508 0.254 
v 0.0508 0.0508 0.254 
v -0.0508 0.0508 0.254 
v -0.0508 -0.0508 0.614846 
v -0.0508 0.0508 0.614846 
v 0.0508 0.0508 0.614846 
v 0.0508 -0.0508 0.614846 
v 0.2032 0.0508 0.614846 
v 0.2032 -0.0508 0.614846 
v 0.2032 0.0508 0.716446 
v 0.2032 -0.0508 0.716446 
v 0.0508 0.0508 0.716446 
v 0.0508 -0.0508 0.716446 
v 0.0508 0.0508 0.868846 
v 0.0508 -0.0508 0.868846 
v -0.0508 0.0508 0.868846 
v -0.0508 -0.0508 0.868846 
v -0.0508 0.0508 0.716446 
v -0.0508 -0.0508 0.716446 
v -0.2032 -0.0508 0.614846 
v -0.2032 -0.0508 0.716446 
v -0.2032 0.0508 0.716446 
v -0.2032 0.0508 0.614846 
vn 1 7.80528e-17 0 
vn 0 0 -1 
vn -1.56106e-16 1 0 
vn -1 -7.80528e-17 0 
vn 1.56106e-16 -1 0 
vn 0.642788 5.01714e-17 0.766044 
vn -1.00343e-16 0.642788 0.766044 
vn -0.642788 -5.01714e-17 0.766044 
vn 1.00343e-16 -0.642788 0.766044 
vn 0 0 1 
vn 1 1.25128e-16 0 
vn -1.25128e-16 1 0 
vn -1 -1.25128e-16 0 
vn 1.25128e-16 -1 0 
vn 0 0 1 
vn -1 0 -1.92295e-16 
vn 1 0 -1.92295e-16 
vn 0 0 -1 
vn 0 0 1 
vn 1 0 -4.09777e-16 
vn -1 0 -4.09777e-16 
vn 0 -1 0 
vn 0 1 0 
vn 0 0 1 
vn -1 0 0 
vn 0 0 -1 
usemtl 0.615686_0.811765_0.929412_0.000000_0.000000
o mesh0
f 1//1 2//1 3//1 
f 3//1 4//1 1//1 
o mesh1
f 5//2 3//2 2//2 
f 2//2 6//2 5//2 
o mesh2
f 4//3 3//3 5//3 
f 5//3 7//3 4//3 
o mesh3
f 7//4 5//4 6//4 
f 6//4 8//4 7//4 
o mesh4
f 8//5 6//5 2//5 
f 2//5 1//5 8//5 
o mesh5
f 4//6 9//6 10//6 
f 10//6 1//6 4//6 
o mesh6
f 7//7 11//7 9//7 
f 9//7 4//7 7//7 
o mesh7
f 8//8 12//8 11//8 
f 11//8 7//8 8//8 
o mesh8
f 1//9 10//9 12//9 
f 12//9 8//9 1//9 
o mesh9
f 9//10 13//10 14//10 
f 11//10 15//10 13//10 
f 13//10 9//10 11//10 
f 12//10 16//10 15//10 
f 15//10 11//10 12//10 
f 10//10 14//10 16//10 
f 16//10 12//10 10//10 
f 14//10 10//10 9//10 
o mesh10
f 17//11 14//11 13//11 
f 13//11 18//11 17//11 
o mesh11
f 18//12 13//12 15//12 
f 15//12 19//12 18//12 
o mesh12
f 19//13 15//13 16//13 
f 16//13 20//13 19//13 
o mesh13
f 20//14 16//14 14//14 
f 14//14 17//14 20//14 
o mesh14
f 19//15 20//15 21//15 
f 20//15 17//15 22//15 
f 22//15 21//15 20//15 
f 17//15 18//15 23//15 
f 18//15 19//15 24//15 
f 23//15 22//15 17//15 
f 21//15 24//15 19//15 
f 24//15 23//15 18//15 
o mesh15
f 25//16 26//16 24//16 
f 24//16 21//16 25//16 
o mesh16
f 22//17 23//17 27//17 
f 27//17 28//17 22//17 
o mesh17
f 28//18 27//18 29//18 
f 29//18 30//18 28//18 
o mesh18
f 30//17 29//17 31//17 
f 31//17 32//17 30//17 
o mesh19
f 32//19 31//19 33//19 
f 33//19 34//19 32//19 
o mesh20
f 34//20 33//20 35//20 
f 35//20 36//20 34//20 
o mesh21
f 36//19 35//19 37//19 
f 37//19 38//19 36//19 
o mesh22
f 38//21 37//21 39//21 
f 39//21 40//21 38//21 
o mesh23
f 38//22 40//22 34//22 
f 22//22 28//22 25//22 
f 40//22 28//22 34//22 
f 32//22 34//22 28//22 
f 28//22 40//22 25//22 
f 41//22 25//22 40//22 
f 28//22 30//22 32//22 
f 40//22 42//22 41//22 
f 25//22 21//22 22//22 
f 34//22 36//22 38//22 
o mesh24
f 35//23 33//23 39//23 
f 24//23 26//23 27//23 
f 33//23 26//23 39//23 
f 43//23 39//23 26//23 
f 26//23 33//23 27//23 
f 29//23 27//23 33//23 
f 26//23 44//23 43//23 
f 33//23 31//23 29//23 
f 27//23 23//23 24//23 
f 39//23 37//23 35//23 
o mesh25
f 40//24 39//24 43//24 
f 43//24 42//24 40//24 
o mesh26
f 42//25 43//25 44//25 
f 44//25 41//25 42//25 
o mesh27
f 41//26 44//26 26//26 
f 26//26 25//26 41//26 
