# File units = meters
mtllib Part Studio 30 - PB-0-463-F.mtl
g PB-0-463-F
v -0.289244 -0.127 0.06858 
v -0.289244 -0.130494 0.06858 
v 0.289244 -0.130494 0.06858 
v 0.289244 -0.127 0.06858 
v 0.3556 -0.19685 0.0508 
v -0.3556 -0.19685 0.0508 
v -0.3556 -0.19685 0 
v 0.3556 -0.19685 0 
v 0.3556 0.19685 0 
v 0.3556 0.19685 0.0508 
v -0.3556 0.19685 0.0508 
v -0.3556 0.19685 0 
v -0.289244 0.130494 0.06858 
v 0.289244 0.130494 0.06858 
v 0.289244 0.127 0.06858 
v -0.289244 0.127 0.06858 
v 0.289244 0.127 0.730406 
v 0.289244 -0.127 0.730406 
v -0.00192096 -0.127 0.774683 
v -0.0109652 -0.127 0.774475 
v 0.0215709 -0.127 0.773885 
v 0.0109652 -0.127 0.774475 
v -0.0215709 -0.127 0.773885 
v 0.0316227 -0.127 0.773016 
v -0.0316227 -0.127 0.773016 
v 0.0422272 -0.127 0.771806 
v -0.0422272 -0.127 0.771806 
v 0.0534657 -0.127 0.770228 
v -0.0534657 -0.127 0.770228 
v 0.0654517 -0.127 0.768252 
v -0.0654517 -0.127 0.768252 
v 0.0783523 -0.127 0.765832 
v -0.0783523 -0.127 0.765832 
v 0.0924266 -0.127 0.762899 
v -1.95331e-17 -0.127 0.77469 
v 0.00192096 -0.127 0.774683 
v -0.0924266 -0.127 0.762899 
v 0.108025 -0.127 0.759368 
v -0.108025 -0.127 0.759368 
v 0.126851 -0.127 0.75483 
v 0.154488 -0.127 0.747968 
v -0.126851 -0.127 0.75483 
v -0.154488 -0.127 0.747968 
v 0.172744 -0.127 0.743589 
v -0.172744 -0.127 0.743589 
v 0.188999 -0.127 0.739962 
v 0.203436 -0.127 0.737018 
v -0.188999 -0.127 0.739962 
v -0.203436 -0.127 0.737018 
v 0.216223 -0.127 0.734686 
v 0.227512 -0.127 0.732903 
v -0.216223 -0.127 0.734686 
v -0.227512 -0.127 0.732903 
v 0.237438 -0.127 0.731607 
v -0.237438 -0.127 0.731607 
v 0.2462 -0.127 0.730739 
v 0.280104 -0.127 0.730341 
v -0.269662 -0.127 0.730114 
v -0.280104 -0.127 0.730341 
v 0.253885 -0.127 0.730254 
v 0.269662 -0.127 0.730114 
v -0.261227 -0.127 0.730064 
v -0.2462 -0.127 0.730739 
v 0.261227 -0.127 0.730064 
v -0.253885 -0.127 0.730254 
v -0.289244 -0.127 0.730406 
v 0.00192096 0.127 0.774683 
v 0.0109652 0.127 0.774475 
v -0.0215709 0.127 0.773885 
v -0.0109652 0.127 0.774475 
v 0.0215709 0.127 0.773885 
v -0.0316227 0.127 0.773016 
v 0.0316227 0.127 0.773016 
v -0.0422272 0.127 0.771806 
v 0.0422272 0.127 0.771806 
v -0.0534657 0.127 0.770228 
v 0.0534657 0.127 0.770228 
v -0.0654517 0.127 0.768252 
v 0.0654517 0.127 0.768252 
v -0.0783523 0.127 0.765832 
v 0.0783523 0.127 0.765832 
v -0.0924266 0.127 0.762899 
v -1.95331e-17 0.127 0.77469 
v -0.00192096 0.127 0.774683 
v 0.0924266 0.127 0.762899 
v -0.108025 0.127 0.759368 
v 0.108025 0.127 0.759368 
v -0.126851 0.127 0.75483 
v 0.126851 0.127 0.75483 
v -0.154488 0.127 0.747968 
v -0.172744 0.127 0.743589 
v 0.154488 0.127 0.747968 
v 0.172744 0.127 0.743589 
v -0.188999 0.127 0.739962 
v 0.188999 0.127 0.739962 
v -0.203436 0.127 0.737018 
v -0.216223 0.127 0.734686 
v 0.203436 0.127 0.737018 
v 0.216223 0.127 0.734686 
v -0.227512 0.127 0.732903 
v -0.237438 0.127 0.731607 
v 0.227512 0.127 0.732903 
v -0.2462 0.127 0.730739 
v 0.269662 0.127 0.730114 
v 0.280104 0.127 0.730341 
v 0.237438 0.127 0.731607 
v 0.261227 0.127 0.730064 
v 0.2462 0.127 0.730739 
v -0.289244 0.127 0.730406 
v -0.280104 0.127 0.730341 
v 0.253885 0.127 0.730254 
v -0.253885 0.127 0.730254 
v -0.269662 0.127 0.730114 
v -0.261227 0.127 0.730064 
vn 0 0 1 
vn 3.03023e-17 -0.258819 0.965926 
vn 1.17079e-16 -1 0 
vn 1 0 0 
vn -1 0 0 
vn 0 0 -1 
vn -1.56106e-16 1 0 
vn -4.04031e-17 0.258819 0.965926 
vn 0.258819 0 0.965926 
vn -0.258819 0 0.965926 
vn 0 0 1 
vn 1 0 0 
vn 0 -1 0 
vn 0 1 0 
vn 0.00707934 0 0.999975 
vn 0 0 1 
vn 0.0385563 0 0.999256 
vn 0.0717968 0 0.997419 
vn 0.0999341 0 0.994994 
vn 0.126358 0 0.991985 
vn 0.150995 0 0.988535 
vn 0.173743 0 0.984791 
vn 0.194435 0 0.980915 
vn 0.212759 0 0.977105 
vn 0.228022 0 0.973656 
vn 0.239208 0 0.970968 
vn 0.239117 0 0.970991 
vn 0.225817 0 0.97417 
vn 0.208986 0 0.977919 
vn 0.189835 0 0.981816 
vn 0.167996 0 0.985788 
vn 0.143028 0 0.989719 
vn 0.114411 0 0.993433 
vn 0.0812267 0 0.996696 
vn 0.0436574 0 0.999047 
vn 0.00908412 0 0.999959 
vn -0.0177498 0 0.999842 
vn -0.0191045 0 0.999817 
vn 0.00844308 0 0.999964 
vn 0 0 1 
vn 0.0191045 0 0.999817 
vn -0.00844308 0 0.999964 
vn 0.0177498 0 0.999842 
vn -0.00908412 0 0.999959 
vn -0.0436574 0 0.999047 
vn -0.0812267 0 0.996696 
vn -0.114411 0 0.993433 
vn -0.143028 0 0.989719 
vn -0.167996 0 0.985788 
vn -0.189835 0 0.981816 
vn -0.208986 0 0.977919 
vn -0.225817 0 0.97417 
vn -0.239117 0 0.970991 
vn -0.239208 0 0.970968 
vn -0.228022 0 0.973656 
vn -0.212759 0 0.977105 
vn -0.194435 0 0.980915 
vn -0.173743 0 0.984791 
vn -0.150995 0 0.988535 
vn -0.126358 0 0.991985 
vn -0.0999341 0 0.994994 
vn -0.0717968 0 0.997419 
vn -0.0385563 0 0.999256 
vn -0.00707934 0 0.999975 
vn 0 0 1 
vn -0.00844308 0 0.999964 
vn -1 0 0 
usemtl 0.615686_0.811765_0.929412_0.000000_0.000000
o mesh0
f 1//1 2//1 3//1 
f 3//1 4//1 1//1 
o mesh1
f 5//2 3//2 2//2 
f 2//2 6//2 5//2 
o mesh2
f 6//3 7//3 8//3 
f 8//3 5//3 6//3 
o mesh3
f 5//4 8//4 9//4 
f 9//4 10//4 5//4 
o mesh4
f 11//5 12//5 7//5 
f 7//5 6//5 11//5 
o mesh5
f 9//6 8//6 7//6 
f 7//6 12//6 9//6 
o mesh6
f 10//7 9//7 12//7 
f 12//7 11//7 10//7 
o mesh7
f 11//8 13//8 14//8 
f 14//8 10//8 11//8 
o mesh8
f 5//9 10//9 15//9 
f 15//9 4//9 5//9 
f 10//9 14//9 15//9 
f 4//9 3//9 5//9 
o mesh9
f 11//10 6//10 1//10 
f 1//10 16//10 11//10 
f 6//10 2//10 1//10 
f 16//10 13//10 11//10 
o mesh10
f 15//11 14//11 13//11 
f 13//11 16//11 15//11 
o mesh11
f 4//12 15//12 17//12 
f 17//12 18//12 4//12 
o mesh12
f 1//13 19//13 20//13 
f 1//13 21//13 22//13 
f 20//13 23//13 1//13 
f 1//13 24//13 21//13 
f 23//13 25//13 1//13 
f 1//13 26//13 24//13 
f 25//13 27//13 1//13 
f 1//13 28//13 26//13 
f 27//13 29//13 1//13 
f 1//13 30//13 28//13 
f 29//13 31//13 1//13 
f 1//13 32//13 30//13 
f 31//13 33//13 1//13 
f 1//13 34//13 32//13 
f 1//13 35//13 19//13 
f 22//13 36//13 1//13 
f 33//13 37//13 1//13 
f 1//13 38//13 34//13 
f 37//13 39//13 1//13 
f 1//13 40//13 38//13 
f 36//13 35//13 1//13 
f 1//13 41//13 40//13 
f 39//13 42//13 1//13 
f 42//13 43//13 1//13 
f 1//13 44//13 41//13 
f 43//13 45//13 1//13 
f 4//13 46//13 44//13 
f 44//13 1//13 4//13 
f 4//13 47//13 46//13 
f 45//13 48//13 1//13 
f 48//13 49//13 1//13 
f 4//13 50//13 47//13 
f 4//13 51//13 50//13 
f 49//13 52//13 1//13 
f 52//13 53//13 1//13 
f 4//13 54//13 51//13 
f 53//13 55//13 1//13 
f 4//13 56//13 54//13 
f 4//13 18//13 57//13 
f 1//13 58//13 59//13 
f 4//13 60//13 56//13 
f 57//13 61//13 4//13 
f 1//13 62//13 58//13 
f 55//13 63//13 1//13 
f 61//13 64//13 4//13 
f 1//13 65//13 62//13 
f 64//13 60//13 4//13 
f 63//13 65//13 1//13 
f 59//13 66//13 1//13 
o mesh13
f 16//14 67//14 68//14 
f 16//14 69//14 70//14 
f 68//14 71//14 16//14 
f 16//14 72//14 69//14 
f 71//14 73//14 16//14 
f 16//14 74//14 72//14 
f 73//14 75//14 16//14 
f 16//14 76//14 74//14 
f 75//14 77//14 16//14 
f 16//14 78//14 76//14 
f 77//14 79//14 16//14 
f 16//14 80//14 78//14 
f 79//14 81//14 16//14 
f 16//14 82//14 80//14 
f 16//14 83//14 67//14 
f 70//14 84//14 16//14 
f 81//14 85//14 16//14 
f 16//14 86//14 82//14 
f 85//14 87//14 16//14 
f 16//14 88//14 86//14 
f 84//14 83//14 16//14 
f 87//14 89//14 16//14 
f 16//14 90//14 88//14 
f 16//14 91//14 90//14 
f 89//14 92//14 16//14 
f 15//14 16//14 93//14 
f 16//14 94//14 91//14 
f 92//14 93//14 16//14 
f 93//14 95//14 15//14 
f 16//14 96//14 94//14 
f 16//14 97//14 96//14 
f 95//14 98//14 15//14 
f 98//14 99//14 15//14 
f 16//14 100//14 97//14 
f 16//14 101//14 100//14 
f 99//14 102//14 15//14 
f 16//14 103//14 101//14 
f 15//14 104//14 105//14 
f 102//14 106//14 15//14 
f 15//14 107//14 104//14 
f 106//14 108//14 15//14 
f 16//14 109//14 110//14 
f 15//14 111//14 107//14 
f 16//14 112//14 103//14 
f 110//14 113//14 16//14 
f 108//14 111//14 15//14 
f 113//14 114//14 16//14 
f 114//14 112//14 16//14 
f 105//14 17//14 15//14 
o mesh14
f 36//15 67//15 83//16 
f 22//17 68//17 67//15 
f 21//18 71//18 68//17 
f 24//19 73//19 71//18 
f 26//20 75//20 73//19 
f 28//21 77//21 75//20 
f 30//22 79//22 77//21 
f 32//23 81//23 79//22 
f 34//24 85//24 81//23 
f 38//25 87//25 85//24 
f 40//26 89//26 87//25 
f 41//27 92//27 89//26 
f 44//28 93//28 92//27 
f 46//29 95//29 93//28 
f 47//30 98//30 95//29 
f 50//31 99//31 98//30 
f 51//32 102//32 99//31 
f 54//33 106//33 102//32 
f 56//34 108//34 106//33 
f 60//35 111//35 108//34 
f 64//36 107//36 111//35 
f 61//37 104//37 107//36 
f 57//38 105//38 104//37 
f 18//39 17//39 105//38 
f 105//38 57//38 18//39 
f 104//37 61//37 57//38 
f 107//36 64//36 61//37 
f 111//35 60//35 64//36 
f 108//34 56//34 60//35 
f 106//33 54//33 56//34 
f 102//32 51//32 54//33 
f 99//31 50//31 51//32 
f 98//30 47//30 50//31 
f 95//29 46//29 47//30 
f 93//28 44//28 46//29 
f 92//27 41//27 44//28 
f 89//26 40//26 41//27 
f 87//25 38//25 40//26 
f 85//24 34//24 38//25 
f 81//23 32//23 34//24 
f 79//22 30//22 32//23 
f 77//21 28//21 30//22 
f 75//20 26//20 28//21 
f 73//19 24//19 26//20 
f 71//18 21//18 24//19 
f 68//17 22//17 21//18 
f 67//15 36//15 22//17 
f 83//16 35//40 36//15 
o mesh15
f 59//41 110//41 109//42 
f 58//43 113//43 110//41 
f 62//44 114//44 113//43 
f 65//45 112//45 114//44 
f 63//46 103//46 112//45 
f 55//47 101//47 103//46 
f 53//48 100//48 101//47 
f 52//49 97//49 100//48 
f 49//50 96//50 97//49 
f 48//51 94//51 96//50 
f 45//52 91//52 94//51 
f 43//53 90//53 91//52 
f 42//54 88//54 90//53 
f 39//55 86//55 88//54 
f 37//56 82//56 86//55 
f 33//57 80//57 82//56 
f 31//58 78//58 80//57 
f 29//59 76//59 78//58 
f 27//60 74//60 76//59 
f 25//61 72//61 74//60 
f 23//62 69//62 72//61 
f 20//63 70//63 69//62 
f 19//64 84//64 70//63 
f 83//65 84//64 19//64 
f 19//64 35//65 83//65 
f 70//63 20//63 19//64 
f 69//62 23//62 20//63 
f 72//61 25//61 23//62 
f 74//60 27//60 25//61 
f 76//59 29//59 27//60 
f 78//58 31//58 29//59 
f 80//57 33//57 31//58 
f 82//56 37//56 33//57 
f 86//55 39//55 37//56 
f 88//54 42//54 39//55 
f 90//53 43//53 42//54 
f 91//52 45//52 43//53 
f 94//51 48//51 45//52 
f 96//50 49//50 48//51 
f 97//49 52//49 49//50 
f 100//48 53//48 52//49 
f 101//47 55//47 53//48 
f 103//46 63//46 55//47 
f 112//45 65//45 63//46 
f 114//44 62//44 65//45 
f 113//43 58//43 62//44 
f 110//41 59//41 58//43 
f 109//42 66//66 59//41 
o mesh16
f 66//67 109//67 16//67 
f 16//67 1//67 66//67 
