# File units = meters
mtllib Part Studio 34 - PB-0-539-F.mtl
g PB-0-539-F
v -0.36322 -0.19558 0.02794 
v -0.36322 -0.19558 0 
v 0.36322 -0.19558 0 
v 0.36322 -0.19558 0.02794 
v 0.36322 0.19558 0 
v -0.36322 0.19558 0 
v 0.36322 0.19558 0.02794 
v -0.36322 0.19558 0.02794 
v 0.286455 -0.118815 0.05588 
v -0.286455 -0.118815 0.05588 
v 0.286455 0.118815 0.05588 
v -0.286455 0.118815 0.05588 
v -0.286455 -0.118815 0.73485 
v -0.286455 0.118815 0.73485 
v -0.286382 -0.118815 0.738201 
v -0.286382 0.118815 0.738201 
v -0.286163 -0.118815 0.741546 
v -0.286163 0.118815 0.741546 
v -0.285798 -0.118815 0.744878 
v -0.285798 0.118815 0.744878 
v -0.285288 -0.118815 0.748192 
v -0.285288 0.118815 0.748192 
v -0.284634 -0.118815 0.75148 
v -0.284634 0.118815 0.75148 
v -0.283837 -0.118815 0.754736 
v -0.283837 0.118815 0.754736 
v -0.282899 -0.118815 0.757954 
v -0.282899 0.118815 0.757954 
v -0.281822 -0.118815 0.761129 
v -0.281822 0.118815 0.761129 
v -0.280607 -0.118815 0.764253 
v -0.280607 0.118815 0.764253 
v -0.279257 -0.118815 0.767321 
v -0.279257 0.118815 0.767321 
v -0.277774 -0.118815 0.770328 
v -0.277774 0.118815 0.770328 
v -0.276162 -0.118815 0.773267 
v -0.276162 0.118815 0.773267 
v -0.274422 -0.118815 0.776133 
v -0.274422 0.118815 0.776133 
v -0.27256 -0.118815 0.77892 
v -0.27256 0.118815 0.77892 
v -0.270578 -0.118815 0.781624 
v -0.270578 0.118815 0.781624 
v -0.26848 -0.118815 0.784238 
v -0.26848 0.118815 0.784238 
v -0.266269 -0.118815 0.786758 
v -0.266269 0.118815 0.786758 
v -0.263951 -0.118815 0.78918 
v -0.263951 0.118815 0.78918 
v -0.261529 -0.118815 0.791498 
v -0.261529 0.118815 0.791498 
v -0.259009 -0.118815 0.793709 
v -0.259009 0.118815 0.793709 
v -0.256395 -0.118815 0.795807 
v -0.256395 0.118815 0.795807 
v -0.253691 -0.118815 0.797789 
v -0.253691 0.118815 0.797789 
v -0.250904 -0.118815 0.799651 
v -0.250904 0.118815 0.799651 
v -0.248038 -0.118815 0.801391 
v -0.248038 0.118815 0.801391 
v -0.245099 -0.118815 0.803003 
v -0.245099 0.118815 0.803003 
v -0.242092 -0.118815 0.804486 
v -0.242092 0.118815 0.804486 
v -0.239024 -0.118815 0.805836 
v -0.239024 0.118815 0.805836 
v -0.2359 -0.118815 0.807051 
v -0.2359 0.118815 0.807051 
v -0.232725 -0.118815 0.808128 
v -0.232725 0.118815 0.808128 
v -0.229507 -0.118815 0.809066 
v -0.229507 0.118815 0.809066 
v -0.226251 -0.118815 0.809863 
v -0.226251 0.118815 0.809863 
v -0.222963 -0.118815 0.810517 
v -0.222963 0.118815 0.810517 
v -0.219649 -0.118815 0.811027 
v -0.219649 0.118815 0.811027 
v -0.216317 -0.118815 0.811392 
v -0.216317 0.118815 0.811392 
v -0.212972 -0.118815 0.811611 
v -0.212972 0.118815 0.811611 
v -0.20962 -0.118815 0.811685 
v -0.20962 0.118815 0.811685 
v 0.26848 -0.118815 0.784238 
v 0.274422 -0.118815 0.776133 
v 0.27256 -0.118815 0.77892 
v 0.277774 -0.118815 0.770328 
v 0.276162 -0.118815 0.773267 
v 0.280607 -0.118815 0.764253 
v 0.279257 -0.118815 0.767321 
v 0.283837 -0.118815 0.754736 
v 0.282899 -0.118815 0.757954 
v 0.259009 -0.118815 0.793709 
v 0.286382 -0.118815 0.738201 
v 0.286163 -0.118815 0.741546 
v 0.286455 -0.118815 0.73485 
v 0.256395 -0.118815 0.795807 
v 0.253691 -0.118815 0.797789 
v 0.263951 -0.118815 0.78918 
v 0.261529 -0.118815 0.791498 
v 0.266269 -0.118815 0.786758 
v 0.281822 -0.118815 0.761129 
v 0.226251 -0.118815 0.809863 
v 0.222963 -0.118815 0.810517 
v 0.242092 -0.118815 0.804486 
v 0.239024 -0.118815 0.805836 
v 0.250904 -0.118815 0.799651 
v 0.248038 -0.118815 0.801391 
v 0.285288 -0.118815 0.748192 
v 0.284634 -0.118815 0.75148 
v 0.285798 -0.118815 0.744878 
v 0.216317 -0.118815 0.811392 
v 0.212972 -0.118815 0.811611 
v 0.219649 -0.118815 0.811027 
v 0.2359 -0.118815 0.807051 
v 0.232725 -0.118815 0.808128 
v 0.245099 -0.118815 0.803003 
v 0.270578 -0.118815 0.781624 
v 0.229507 -0.118815 0.809066 
v 0.20962 -0.118815 0.811685 
v 0.26848 0.118815 0.784238 
v 0.274422 0.118815 0.776133 
v 0.276162 0.118815 0.773267 
v 0.270578 0.118815 0.781624 
v 0.259009 0.118815 0.793709 
v 0.285798 0.118815 0.744878 
v 0.286163 0.118815 0.741546 
v 0.281822 0.118815 0.761129 
v 0.282899 0.118815 0.757954 
v 0.277774 0.118815 0.770328 
v 0.279257 0.118815 0.767321 
v 0.27256 0.118815 0.77892 
v 0.286382 0.118815 0.738201 
v 0.280607 0.118815 0.764253 
v 0.283837 0.118815 0.754736 
v 0.263951 0.118815 0.78918 
v 0.266269 0.118815 0.786758 
v 0.261529 0.118815 0.791498 
v 0.286455 0.118815 0.73485 
v 0.250904 0.118815 0.799651 
v 0.253691 0.118815 0.797789 
v 0.285288 0.118815 0.748192 
v 0.284634 0.118815 0.75148 
v 0.256395 0.118815 0.795807 
v 0.245099 0.118815 0.803003 
v 0.248038 0.118815 0.801391 
v 0.2359 0.118815 0.807051 
v 0.239024 0.118815 0.805836 
v 0.219649 0.118815 0.811027 
v 0.222963 0.118815 0.810517 
v 0.242092 0.118815 0.804486 
v 0.229507 0.118815 0.809066 
v 0.232725 0.118815 0.808128 
v 0.216317 0.118815 0.811392 
v 0.20962 0.118815 0.811685 
v 0.212972 0.118815 0.811611 
v 0.226251 0.118815 0.809863 
vn 1.26085e-16 -1 0 
vn 0 0 -1 
vn 1 0 0 
vn -8.40569e-17 1 0 
vn -1 0 0 
vn 4.31237e-17 -0.34202 0.939693 
vn 0.34202 0 0.939693 
vn -2.87491e-17 0.34202 0.939693 
vn -0.34202 0 0.939693 
vn -1 0 0 
vn -0.999048 0 0.0436194 
vn -0.996195 0 0.0871557 
vn -0.991445 0 0.130526 
vn -0.984808 0 0.173648 
vn -0.976296 0 0.21644 
vn -0.965926 0 0.258819 
vn -0.953717 0 0.300706 
vn -0.939693 0 0.34202 
vn -0.92388 0 0.382683 
vn -0.906308 0 0.422618 
vn -0.887011 0 0.461749 
vn -0.866025 0 0.5 
vn -0.843391 0 0.5373 
vn -0.819152 0 0.573576 
vn -0.793353 0 0.608761 
vn -0.766044 0 0.642788 
vn -0.737277 0 0.67559 
vn -0.707107 0 0.707107 
vn -0.67559 0 0.737277 
vn -0.642788 0 0.766044 
vn -0.608761 0 0.793353 
vn -0.573576 0 0.819152 
vn -0.5373 0 0.843391 
vn -0.5 0 0.866025 
vn -0.461749 0 0.887011 
vn -0.422618 0 0.906308 
vn -0.382683 0 0.92388 
vn -0.34202 0 0.939693 
vn -0.300706 0 0.953717 
vn -0.258819 0 0.965926 
vn -0.21644 0 0.976296 
vn -0.173648 0 0.984808 
vn -0.130526 0 0.991445 
vn -0.0871557 0 0.996195 
vn -0.0436194 0 0.999048 
vn 0 0 1 
vn 0 -1 0 
vn 0 1 0 
vn 0 0 1 
vn 1 0 0 
vn 0.0436194 0 0.999048 
vn 0.0871557 0 0.996195 
vn 0.130526 0 0.991445 
vn 0.173648 0 0.984808 
vn 0.21644 0 0.976296 
vn 0.258819 0 0.965926 
vn 0.300706 0 0.953717 
vn 0.34202 0 0.939693 
vn 0.382683 0 0.92388 
vn 0.422618 0 0.906308 
vn 0.461749 0 0.887011 
vn 0.5 0 0.866025 
vn 0.5373 0 0.843391 
vn 0.573576 0 0.819152 
vn 0.608761 0 0.793353 
vn 0.642788 0 0.766044 
vn 0.67559 0 0.737277 
vn 0.707107 0 0.707107 
vn 0.737277 0 0.67559 
vn 0.766044 0 0.642788 
vn 0.793353 0 0.608761 
vn 0.819152 0 0.573576 
vn 0.843391 0 0.5373 
vn 0.866025 0 0.5 
vn 0.887011 0 0.461749 
vn 0.906308 0 0.422618 
vn 0.92388 0 0.382683 
vn 0.939693 0 0.34202 
vn 0.953717 0 0.300706 
vn 0.965926 0 0.258819 
vn 0.976296 0 0.21644 
vn 0.984808 0 0.173648 
vn 0.991445 0 0.130526 
vn 0.996195 0 0.0871557 
vn 0.999048 0 0.0436194 
vn 1 0 0 
usemtl 0.615686_0.811765_0.929412_0.000000_0.000000
o mesh0
f 1//1 2//1 3//1 
f 3//1 4//1 1//1 
o mesh1
f 5//2 3//2 2//2 
f 2//2 6//2 5//2 
o mesh2
f 4//3 3//3 5//3 
f 5//3 7//3 4//3 
o mesh3
f 7//4 5//4 6//4 
f 6//4 8//4 7//4 
o mesh4
f 8//5 6//5 2//5 
f 2//5 1//5 8//5 
o mesh5
f 1//6 4//6 9//6 
f 9//6 10//6 1//6 
o mesh6
f 4//7 7//7 11//7 
f 11//7 9//7 4//7 
o mesh7
f 7//8 8//8 12//8 
f 12//8 11//8 7//8 
o mesh8
f 8//9 1//9 10//9 
f 10//9 12//9 8//9 
o mesh9
f 12//10 10//10 13//10 
f 13//10 14//10 12//10 
o mesh10
f 14//10 13//10 15//11 
f 16//11 15//11 17//12 
f 18//12 17//12 19//13 
f 20//13 19//13 21//14 
f 22//14 21//14 23//15 
f 24//15 23//15 25//16 
f 26//16 25//16 27//17 
f 28//17 27//17 29//18 
f 30//18 29//18 31//19 
f 32//19 31//19 33//20 
f 34//20 33//20 35//21 
f 36//21 35//21 37//22 
f 38//22 37//22 39//23 
f 40//23 39//23 41//24 
f 42//24 41//24 43//25 
f 44//25 43//25 45//26 
f 46//26 45//26 47//27 
f 48//27 47//27 49//28 
f 50//28 49//28 51//29 
f 52//29 51//29 53//30 
f 54//30 53//30 55//31 
f 56//31 55//31 57//32 
f 58//32 57//32 59//33 
f 60//33 59//33 61//34 
f 62//34 61//34 63//35 
f 64//35 63//35 65//36 
f 66//36 65//36 67//37 
f 68//37 67//37 69//38 
f 70//38 69//38 71//39 
f 72//39 71//39 73//40 
f 74//40 73//40 75//41 
f 76//41 75//41 77//42 
f 78//42 77//42 79//43 
f 80//43 79//43 81//44 
f 82//44 81//44 83//45 
f 84//45 83//45 85//46 
f 85//46 86//46 84//45 
f 83//45 84//45 82//44 
f 81//44 82//44 80//43 
f 79//43 80//43 78//42 
f 77//42 78//42 76//41 
f 75//41 76//41 74//40 
f 73//40 74//40 72//39 
f 71//39 72//39 70//38 
f 69//38 70//38 68//37 
f 67//37 68//37 66//36 
f 65//36 66//36 64//35 
f 63//35 64//35 62//34 
f 61//34 62//34 60//33 
f 59//33 60//33 58//32 
f 57//32 58//32 56//31 
f 55//31 56//31 54//30 
f 53//30 54//30 52//29 
f 51//29 52//29 50//28 
f 49//28 50//28 48//27 
f 47//27 48//27 46//26 
f 45//26 46//26 44//25 
f 43//25 44//25 42//24 
f 41//24 42//24 40//23 
f 39//23 40//23 38//22 
f 37//22 38//22 36//21 
f 35//21 36//21 34//20 
f 33//20 34//20 32//19 
f 31//19 32//19 30//18 
f 29//18 30//18 28//17 
f 27//17 28//17 26//16 
f 25//16 26//16 24//15 
f 23//15 24//15 22//14 
f 21//14 22//14 20//13 
f 19//13 20//13 18//12 
f 17//12 18//12 16//11 
f 15//11 16//11 14//10 
o mesh11
f 53//47 39//47 37//47 
f 51//47 49//47 47//47 
f 87//47 88//47 89//47 
f 87//47 90//47 91//47 
f 53//47 41//47 39//47 
f 45//47 53//47 51//47 
f 13//47 63//47 61//47 
f 91//47 88//47 87//47 
f 87//47 92//47 93//47 
f 87//47 94//47 95//47 
f 96//47 97//47 98//47 
f 53//47 43//47 41//47 
f 47//47 45//47 51//47 
f 13//47 65//47 63//47 
f 99//47 100//47 101//47 
f 94//47 102//47 103//47 
f 94//47 87//47 104//47 
f 93//47 90//47 87//47 
f 95//47 105//47 87//47 
f 96//47 99//47 97//47 
f 53//47 35//47 33//47 
f 45//47 43//47 53//47 
f 13//47 67//47 65//47 
f 13//47 71//47 69//47 
f 13//47 79//47 77//47 
f 99//47 106//47 107//47 
f 99//47 108//47 109//47 
f 99//47 110//47 111//47 
f 99//47 96//47 100//47 
f 104//47 102//47 94//47 
f 105//47 92//47 87//47 
f 96//47 112//47 113//47 
f 98//47 114//47 96//47 
f 53//47 19//47 17//47 
f 53//47 25//47 23//47 
f 53//47 31//47 29//47 
f 37//47 35//47 53//47 
f 69//47 67//47 13//47 
f 13//47 75//47 73//47 
f 13//47 81//47 79//47 
f 13//47 85//47 83//47 
f 99//47 115//47 116//47 
f 107//47 117//47 99//47 
f 99//47 118//47 119//47 
f 99//47 120//47 108//47 
f 101//47 110//47 99//47 
f 89//47 121//47 87//47 
f 114//47 112//47 96//47 
f 17//47 15//47 53//47 
f 53//47 27//47 25//47 
f 33//47 31//47 53//47 
f 13//47 59//47 57//47 
f 73//47 71//47 13//47 
f 83//47 81//47 13//47 
f 117//47 115//47 99//47 
f 119//47 122//47 99//47 
f 111//47 120//47 99//47 
f 113//47 94//47 96//47 
f 53//47 21//47 19//47 
f 29//47 27//47 53//47 
f 57//47 55//47 13//47 
f 77//47 75//47 13//47 
f 122//47 106//47 99//47 
f 103//47 96//47 94//47 
f 23//47 21//47 53//47 
f 61//47 59//47 13//47 
f 109//47 118//47 99//47 
f 55//47 53//47 13//47 
f 116//47 123//47 99//47 
f 10//47 9//47 99//47 
f 15//47 13//47 53//47 
f 99//47 85//47 10//47 
f 123//47 85//47 99//47 
f 13//47 10//47 85//47 
o mesh12
f 52//48 46//48 48//48 
f 54//48 36//48 38//48 
f 14//48 60//48 62//48 
f 48//48 50//48 52//48 
f 38//48 40//48 54//48 
f 124//48 125//48 126//48 
f 125//48 124//48 127//48 
f 62//48 64//48 14//48 
f 54//48 44//48 46//48 
f 40//48 42//48 54//48 
f 128//48 129//48 130//48 
f 124//48 131//48 132//48 
f 124//48 133//48 134//48 
f 127//48 135//48 125//48 
f 14//48 76//48 78//48 
f 14//48 68//48 70//48 
f 64//48 66//48 14//48 
f 42//48 44//48 54//48 
f 54//48 32//48 34//48 
f 130//48 136//48 128//48 
f 124//48 137//48 131//48 
f 126//48 133//48 124//48 
f 138//48 139//48 140//48 
f 138//48 128//48 141//48 
f 142//48 143//48 144//48 
f 14//48 82//48 84//48 
f 78//48 80//48 14//48 
f 14//48 72//48 74//48 
f 66//48 68//48 14//48 
f 34//48 36//48 54//48 
f 54//48 28//48 30//48 
f 54//48 22//48 24//48 
f 54//48 16//48 18//48 
f 128//48 145//48 129//48 
f 128//48 138//48 146//48 
f 134//48 137//48 124//48 
f 141//48 139//48 138//48 
f 144//48 147//48 142//48 
f 142//48 148//48 149//48 
f 142//48 150//48 151//48 
f 142//48 152//48 153//48 
f 80//48 82//48 14//48 
f 70//48 72//48 14//48 
f 14//48 56//48 58//48 
f 30//48 32//48 54//48 
f 24//48 26//48 54//48 
f 54//48 14//48 16//48 
f 146//48 145//48 128//48 
f 140//48 124//48 138//48 
f 149//48 143//48 142//48 
f 151//48 154//48 142//48 
f 142//48 155//48 156//48 
f 142//48 157//48 152//48 
f 142//48 158//48 159//48 
f 74//48 76//48 14//48 
f 14//48 54//48 56//48 
f 26//48 28//48 54//48 
f 18//48 20//48 54//48 
f 132//48 138//48 124//48 
f 154//48 148//48 142//48 
f 142//48 160//48 155//48 
f 159//48 157//48 142//48 
f 58//48 60//48 14//48 
f 20//48 22//48 54//48 
f 147//48 128//48 142//48 
f 153//48 160//48 142//48 
f 52//48 54//48 46//48 
f 156//48 150//48 142//48 
f 84//48 86//48 14//48 
f 11//48 12//48 14//48 
f 136//48 142//48 128//48 
f 14//48 158//48 11//48 
f 86//48 158//48 14//48 
f 142//48 11//48 158//48 
o mesh13
f 123//49 158//49 86//49 
f 86//49 85//49 123//49 
o mesh14
f 9//50 11//50 142//50 
f 142//50 99//50 9//50 
o mesh15
f 158//49 123//49 116//51 
f 159//51 116//51 115//52 
f 157//52 115//52 117//53 
f 152//53 117//53 107//54 
f 153//54 107//54 106//55 
f 160//55 106//55 122//56 
f 155//56 122//56 119//57 
f 156//57 119//57 118//58 
f 150//58 118//58 109//59 
f 151//59 109//59 108//60 
f 154//60 108//60 120//61 
f 148//61 120//61 111//62 
f 149//62 111//62 110//63 
f 143//63 110//63 101//64 
f 144//64 101//64 100//65 
f 147//65 100//65 96//66 
f 128//66 96//66 103//67 
f 141//67 103//67 102//68 
f 139//68 102//68 104//69 
f 140//69 104//69 87//70 
f 124//70 87//70 121//71 
f 127//71 121//71 89//72 
f 135//72 89//72 88//73 
f 125//73 88//73 91//74 
f 126//74 91//74 90//75 
f 133//75 90//75 93//76 
f 134//76 93//76 92//77 
f 137//77 92//77 105//78 
f 131//78 105//78 95//79 
f 132//79 95//79 94//80 
f 138//80 94//80 113//81 
f 146//81 113//81 112//82 
f 145//82 112//82 114//83 
f 129//83 114//83 98//84 
f 130//84 98//84 97//85 
f 136//85 97//85 99//86 
f 99//86 142//86 136//85 
f 97//85 136//85 130//84 
f 98//84 130//84 129//83 
f 114//83 129//83 145//82 
f 112//82 145//82 146//81 
f 113//81 146//81 138//80 
f 94//80 138//80 132//79 
f 95//79 132//79 131//78 
f 105//78 131//78 137//77 
f 92//77 137//77 134//76 
f 93//76 134//76 133//75 
f 90//75 133//75 126//74 
f 91//74 126//74 125//73 
f 88//73 125//73 135//72 
f 89//72 135//72 127//71 
f 121//71 127//71 124//70 
f 87//70 124//70 140//69 
f 104//69 140//69 139//68 
f 102//68 139//68 141//67 
f 103//67 141//67 128//66 
f 96//66 128//66 147//65 
f 100//65 147//65 144//64 
f 101//64 144//64 143//63 
f 110//63 143//63 149//62 
f 111//62 149//62 148//61 
f 120//61 148//61 154//60 
f 108//60 154//60 151//59 
f 109//59 151//59 150//58 
f 118//58 150//58 156//57 
f 119//57 156//57 155//56 
f 122//56 155//56 160//55 
f 106//55 160//55 153//54 
f 107//54 153//54 152//53 
f 117//53 152//53 157//52 
f 115//52 157//52 159//51 
f 116//51 159//51 158//49 
