# File units = meters
mtllib Part Studio 35 - PB-0-550-F.mtl
g PB-0-550-F
v -0.602057 -0.144857 0.89408 
v 0.602057 -0.144857 0.89408 
v -9.00569e-17 -3.83374e-16 0.99551 
v 0.602057 0.144857 0.89408 
v -0.602057 0.144857 0.89408 
v 0.602057 -0.144857 0.13208 
v 0.602057 0.144857 0.13208 
v -0.602057 -0.144857 0.13208 
v -0.602057 0.144857 0.13208 
v 0.6858 -0.2286 0.1016 
v 0.6858 0.2286 0.1016 
v -0.6858 -0.2286 0.1016 
v -0.6858 0.2286 0.1016 
v 0.6858 -0.2286 0 
v 0.6858 0.2286 0 
v -0.6858 -0.2286 0 
v -0.6858 0.2286 0 
vn 8.12479e-17 -0.573576 0.819152 
vn 0.166131 2.35327e-17 0.986104 
vn -6.96411e-17 0.573576 0.819152 
vn 1 0 0 
vn -0.166131 -2.35327e-17 0.986104 
vn 1.41651e-16 -1 0 
vn -1.21415e-16 1 0 
vn 0.34202 0 0.939693 
vn -1 0 0 
vn 4.84476e-17 -0.34202 0.939693 
vn -4.15265e-17 0.34202 0.939693 
vn 1 0 0 
vn 1.41651e-16 -1 0 
vn -1.21415e-16 1 0 
vn -1 0 0 
vn 0 0 -1 
vn -0.34202 0 0.939693 
usemtl 0.615686_0.811765_0.929412_0.000000_0.000000
o mesh0
f 1//1 2//1 3//1 
o mesh1
f 2//2 4//2 3//2 
o mesh2
f 5//3 3//3 4//3 
o mesh3
f 2//4 6//4 7//4 
f 7//4 4//4 2//4 
o mesh4
f 3//5 5//5 1//5 
o mesh5
f 1//6 8//6 6//6 
f 6//6 2//6 1//6 
o mesh6
f 4//7 7//7 9//7 
f 9//7 5//7 4//7 
o mesh7
f 10//8 11//8 7//8 
f 7//8 6//8 10//8 
o mesh8
f 1//9 5//9 9//9 
f 9//9 8//9 1//9 
o mesh9
f 12//10 10//10 6//10 
f 6//10 8//10 12//10 
o mesh10
f 11//11 13//11 9//11 
f 9//11 7//11 11//11 
o mesh11
f 10//12 14//12 15//12 
f 15//12 11//12 10//12 
o mesh12
f 12//13 16//13 14//13 
f 14//13 10//13 12//13 
o mesh13
f 11//14 15//14 17//14 
f 17//14 13//14 11//14 
o mesh14
f 13//15 17//15 16//15 
f 16//15 12//15 13//15 
o mesh15
f 15//16 14//16 16//16 
f 16//16 17//16 15//16 
o mesh16
f 13//17 12//17 8//17 
f 8//17 9//17 13//17 
