# File units = meters
mtllib Part Studio 39 - PB-0-653-F.mtl
g PB-0-653-F
v -0.455997 0.1524 0.106643 
v -0.4572 0.1524 0.106396 
v -0.4572 -0.1524 0.106396 
v -0.454806 0.1524 0.106941 
v -0.455997 -0.1524 0.106643 
v -0.453629 0.1524 0.107291 
v -0.454806 -0.1524 0.106941 
v -0.452468 0.1524 0.107691 
v -0.453629 -0.1524 0.107291 
v -0.451326 0.1524 0.108142 
v -0.452468 -0.1524 0.107691 
v -0.450204 0.1524 0.108642 
v -0.451326 -0.1524 0.108142 
v -0.449105 0.1524 0.10919 
v -0.450204 -0.1524 0.108642 
v -0.448031 0.1524 0.109785 
v -0.449105 -0.1524 0.10919 
v -0.446984 0.1524 0.110427 
v -0.448031 -0.1524 0.109785 
v -0.445966 0.1524 0.111113 
v -0.446984 -0.1524 0.110427 
v -0.444978 0.1524 0.111843 
v -0.445966 -0.1524 0.111113 
v -0.444023 0.1524 0.112615 
v -0.444978 -0.1524 0.111843 
v -0.443103 0.1524 0.113428 
v -0.444023 -0.1524 0.112615 
v -0.442219 0.1524 0.11428 
v -0.443103 -0.1524 0.113428 
v -0.441372 0.1524 0.11517 
v -0.442219 -0.1524 0.11428 
v -0.440565 0.1524 0.116095 
v -0.441372 -0.1524 0.11517 
v -0.439799 0.1524 0.117055 
v -0.440565 -0.1524 0.116095 
v -0.439076 0.1524 0.118047 
v -0.439799 -0.1524 0.117055 
v -0.438396 0.1524 0.11907 
v -0.439076 -0.1524 0.118047 
v -0.437761 0.1524 0.120121 
v -0.438396 -0.1524 0.11907 
v -0.437173 0.1524 0.121199 
v -0.437761 -0.1524 0.120121 
v -0.436632 0.1524 0.122301 
v -0.437173 -0.1524 0.121199 
v -0.436139 0.1524 0.123426 
v -0.436632 -0.1524 0.122301 
v -0.435696 0.1524 0.124571 
v -0.436139 -0.1524 0.123426 
v -0.435303 0.1524 0.125735 
v -0.435696 -0.1524 0.124571 
v -0.43496 0.1524 0.126914 
v -0.435303 -0.1524 0.125735 
v -0.43467 0.1524 0.128107 
v -0.43496 -0.1524 0.126914 
v -0.434431 0.1524 0.129312 
v -0.43467 -0.1524 0.128107 
v -0.434245 0.1524 0.130525 
v -0.434431 -0.1524 0.129312 
v -0.434112 0.1524 0.131746 
v -0.434245 -0.1524 0.130525 
v -0.434032 0.1524 0.132972 
v -0.434112 -0.1524 0.131746 
v -0.434005 0.1524 0.134199 
v -0.434032 -0.1524 0.132972 
v -0.434005 -0.1524 0.134199 
v -0.4572 0.1524 0 
v -0.4572 -0.1524 0 
v 0.4572 0.1524 0 
v 0.4572 -0.1524 0 
v 0.4572 0.1524 0.106396 
v 0.4572 -0.1524 0.106396 
v 0.434032 0.1524 0.132972 
v 0.434005 0.1524 0.134199 
v 0.434005 -0.1524 0.134199 
v 0.434112 0.1524 0.131746 
v 0.434032 -0.1524 0.132972 
v 0.434245 0.1524 0.130525 
v 0.434112 -0.1524 0.131746 
v 0.434431 0.1524 0.129312 
v 0.434245 -0.1524 0.130525 
v 0.43467 0.1524 0.128107 
v 0.434431 -0.1524 0.129312 
v 0.43496 0.1524 0.126914 
v 0.43467 -0.1524 0.128107 
v 0.435303 0.1524 0.125735 
v 0.43496 -0.1524 0.126914 
v 0.435696 0.1524 0.124571 
v 0.435303 -0.1524 0.125735 
v 0.436139 0.1524 0.123426 
v 0.435696 -0.1524 0.124571 
v 0.436632 0.1524 0.122301 
v 0.436139 -0.1524 0.123426 
v 0.437173 0.1524 0.121199 
v 0.436632 -0.1524 0.122301 
v 0.437761 0.1524 0.120121 
v 0.437173 -0.1524 0.121199 
v 0.438396 0.1524 0.11907 
v 0.437761 -0.1524 0.120121 
v 0.439076 0.1524 0.118047 
v 0.438396 -0.1524 0.11907 
v 0.439799 0.1524 0.117055 
v 0.439076 -0.1524 0.118047 
v 0.440565 0.1524 0.116095 
v 0.439799 -0.1524 0.117055 
v 0.441372 0.1524 0.11517 
v 0.440565 -0.1524 0.116095 
v 0.442219 0.1524 0.11428 
v 0.441372 -0.1524 0.11517 
v 0.443103 0.1524 0.113428 
v 0.442219 -0.1524 0.11428 
v 0.444023 0.1524 0.112615 
v 0.443103 -0.1524 0.113428 
v 0.444978 0.1524 0.111843 
v 0.444023 -0.1524 0.112615 
v 0.445966 0.1524 0.111113 
v 0.444978 -0.1524 0.111843 
v 0.446984 0.1524 0.110427 
v 0.445966 -0.1524 0.111113 
v 0.448031 0.1524 0.109785 
v 0.446984 -0.1524 0.110427 
v 0.449105 0.1524 0.10919 
v 0.448031 -0.1524 0.109785 
v 0.450204 0.1524 0.108642 
v 0.449105 -0.1524 0.10919 
v 0.451326 0.1524 0.108142 
v 0.450204 -0.1524 0.108642 
v 0.452468 0.1524 0.107691 
v 0.451326 -0.1524 0.108142 
v 0.453629 0.1524 0.107291 
v 0.452468 -0.1524 0.107691 
v 0.454806 0.1524 0.106941 
v 0.453629 -0.1524 0.107291 
v 0.455997 0.1524 0.106643 
v 0.454806 -0.1524 0.106941 
v 0.455997 -0.1524 0.106643 
v -2.75217e-16 -0.1524 0.736846 
v -0.171621 -0.1524 0.725391 
v -0.19596 -0.1524 0.721891 
v -0.0245886 -0.1524 0.736612 
v 0.0491682 -0.1524 0.73591 
v 0.0245886 -0.1524 0.736612 
v -0.292519 -0.1524 0.703279 
v -0.316416 -0.1524 0.697482 
v -0.244417 -0.1524 0.713505 
v -0.268517 -0.1524 0.708621 
v -0.147219 -0.1524 0.728427 
v -0.0982651 -0.1524 0.733102 
v -0.122765 -0.1524 0.730997 
v -0.0491682 -0.1524 0.73591 
v -0.07373 -0.1524 0.734739 
v 0.147219 -0.1524 0.728427 
v 0.122765 -0.1524 0.730997 
v 0.0982651 -0.1524 0.733102 
v 0.07373 -0.1524 0.734739 
v 0.171621 -0.1524 0.725391 
v -0.340197 -0.1524 0.69123 
v -0.363856 -0.1524 0.684527 
v -0.220229 -0.1524 0.717929 
v 0.220229 -0.1524 0.717929 
v 0.19596 -0.1524 0.721891 
v -0.387382 -0.1524 0.677374 
v -0.410768 -0.1524 0.669775 
v -0.434005 -0.1524 0.661732 
v 0.268517 -0.1524 0.708621 
v 0.410768 -0.1524 0.669775 
v 0.387382 -0.1524 0.677374 
v 0.340197 -0.1524 0.69123 
v 0.316416 -0.1524 0.697482 
v 0.292519 -0.1524 0.703279 
v 0.244417 -0.1524 0.713505 
v 0.434005 -0.1524 0.661732 
v 0.363856 -0.1524 0.684527 
v 0.0982651 0.1524 0.733102 
v 0.122765 0.1524 0.730997 
v 0.19596 0.1524 0.721891 
v 0.220229 0.1524 0.717929 
v 0.147219 0.1524 0.728427 
v 0.0491682 0.1524 0.73591 
v 0.07373 0.1524 0.734739 
v -2.75217e-16 0.1524 0.736846 
v 0.387382 0.1524 0.677374 
v 0.410768 0.1524 0.669775 
v 0.268517 0.1524 0.708621 
v 0.292519 0.1524 0.703279 
v 0.171621 0.1524 0.725391 
v 0.0245886 0.1524 0.736612 
v -0.0491682 0.1524 0.73591 
v -0.0245886 0.1524 0.736612 
v 0.363856 0.1524 0.684527 
v 0.316416 0.1524 0.697482 
v 0.340197 0.1524 0.69123 
v 0.244417 0.1524 0.713505 
v -0.0982651 0.1524 0.733102 
v -0.07373 0.1524 0.734739 
v -0.147219 0.1524 0.728427 
v -0.122765 0.1524 0.730997 
v -0.171621 0.1524 0.725391 
v -0.268517 0.1524 0.708621 
v 0.434005 0.1524 0.661732 
v -0.316416 0.1524 0.697482 
v -0.292519 0.1524 0.703279 
v -0.220229 0.1524 0.717929 
v -0.19596 0.1524 0.721891 
v -0.410768 0.1524 0.669775 
v -0.387382 0.1524 0.677374 
v -0.340197 0.1524 0.69123 
v -0.244417 0.1524 0.713505 
v -0.434005 0.1524 0.661732 
v -0.363856 0.1524 0.684527 
vn -0.221822 0 0.975087 
vn -0.179253 0 0.983803 
vn -0.263971 0 0.96453 
vn -0.221822 0 0.975087 
vn -0.305623 0 0.952153 
vn -0.263971 0 0.96453 
vn -0.346698 0 0.937977 
vn -0.305623 0 0.952153 
vn -0.387118 0 0.92203 
vn -0.346698 0 0.937977 
vn -0.426807 0 0.904343 
vn -0.387118 0 0.92203 
vn -0.46569 0 0.884948 
vn -0.426807 0 0.904343 
vn -0.503694 0 0.863882 
vn -0.46569 0 0.884948 
vn -0.540747 0 0.841185 
vn -0.503694 0 0.863882 
vn -0.576779 0 0.8169 
vn -0.540747 0 0.841185 
vn -0.611722 0 0.791073 
vn -0.576779 0 0.8169 
vn -0.64551 0 0.763752 
vn -0.611722 0 0.791073 
vn -0.678079 0 0.734989 
vn -0.64551 0 0.763752 
vn -0.709368 0 0.704838 
vn -0.678079 0 0.734989 
vn -0.739318 0 0.673357 
vn -0.709368 0 0.704838 
vn -0.767871 0 0.640604 
vn -0.739318 0 0.673357 
vn -0.794975 0 0.606642 
vn -0.767871 0 0.640604 
vn -0.820578 0 0.571534 
vn -0.794975 0 0.606642 
vn -0.844632 0 0.535347 
vn -0.820578 0 0.571534 
vn -0.867091 0 0.49815 
vn -0.844632 0 0.535347 
vn -0.887913 0 0.460012 
vn -0.867091 0 0.49815 
vn -0.907058 0 0.421005 
vn -0.887913 0 0.460012 
vn -0.924491 0 0.381203 
vn -0.907058 0 0.421005 
vn -0.940179 0 0.340682 
vn -0.924491 0 0.381203 
vn -0.954091 0 0.299518 
vn -0.940179 0 0.340682 
vn -0.966202 0 0.257788 
vn -0.954091 0 0.299518 
vn -0.976488 0 0.215571 
vn -0.966202 0 0.257788 
vn -0.984931 0 0.172947 
vn -0.976488 0 0.215571 
vn -0.991514 0 0.129997 
vn -0.984931 0 0.172947 
vn -0.996226 0 0.0868012 
vn -0.991514 0 0.129997 
vn -0.999056 0 0.0434416 
vn -0.996226 0 0.0868012 
vn -1 0 -6.12323e-17 
vn -0.999056 0 0.0434416 
vn 0 0 -1 
vn 1 0 0 
vn 0.999056 0 0.0434416 
vn 0.996226 0 0.0868012 
vn 0.991514 0 0.129997 
vn 0.984931 0 0.172947 
vn 0.976488 0 0.215571 
vn 0.966202 0 0.257788 
vn 0.954091 0 0.299518 
vn 0.940179 0 0.340682 
vn 0.924491 0 0.381203 
vn 0.907058 0 0.421005 
vn 0.887913 0 0.460012 
vn 0.867091 0 0.49815 
vn 0.844632 0 0.535347 
vn 0.820578 0 0.571534 
vn 0.794975 0 0.606642 
vn 0.767871 0 0.640604 
vn 0.739318 0 0.673357 
vn 0.709368 0 0.704838 
vn 0.678079 0 0.734989 
vn 0.64551 0 0.763752 
vn 0.611722 0 0.791073 
vn 0.576779 0 0.8169 
vn 0.540747 0 0.841185 
vn 0.503694 0 0.863882 
vn 0.46569 0 0.884948 
vn 0.426807 0 0.904343 
vn 0.387118 0 0.92203 
vn 0.346698 0 0.937977 
vn 0.305623 0 0.952153 
vn 0.263971 0 0.96453 
vn 0.221822 0 0.975087 
vn 0.179253 0 0.983803 
vn 0 -1 0 
vn 0 1 0 
vn 1 0 0 
vn -0.336078 0 0.941834 
vn -0.318084 0 0.948063 
vn -0.299975 0 0.953947 
vn -0.281757 0 0.959486 
vn -0.263437 0 0.964677 
vn -0.245021 0 0.969518 
vn -0.226516 0 0.974007 
vn -0.20793 0 0.978144 
vn -0.189268 0 0.981926 
vn -0.170537 0 0.985351 
vn -0.151745 0 0.98842 
vn -0.132897 0 0.99113 
vn -0.114001 0 0.993481 
vn -0.0950644 0 0.995471 
vn -0.0760929 0 0.997101 
vn -0.0570938 0 0.998369 
vn -0.0380741 0 0.999275 
vn -0.0190405 0 0.999819 
vn 6.43249e-16 0 1 
vn 0.0190405 0 0.999819 
vn 0.0380741 0 0.999275 
vn 0.0570938 0 0.998369 
vn 0.0760929 0 0.997101 
vn 0.0950644 0 0.995471 
vn 0.114001 0 0.993481 
vn 0.132897 0 0.99113 
vn 0.151745 0 0.98842 
vn 0.170537 0 0.985351 
vn 0.189268 0 0.981926 
vn 0.20793 0 0.978144 
vn 0.226516 0 0.974007 
vn 0.245021 0 0.969518 
vn 0.263437 0 0.964677 
vn 0.281757 0 0.959486 
vn 0.299975 0 0.953947 
vn 0.318084 0 0.948063 
vn 0.336078 0 0.941834 
vn -1 0 0 
usemtl 0.615686_0.811765_0.929412_0.000000_0.000000
o mesh0
f 1//1 2//2 3//2 
f 4//3 1//1 5//4 
f 6//5 4//3 7//6 
f 8//7 6//5 9//8 
f 10//9 8//7 11//10 
f 12//11 10//9 13//12 
f 14//13 12//11 15//14 
f 16//15 14//13 17//16 
f 18//17 16//15 19//18 
f 20//19 18//17 21//20 
f 22//21 20//19 23//22 
f 24//23 22//21 25//24 
f 26//25 24//23 27//26 
f 28//27 26//25 29//28 
f 30//29 28//27 31//30 
f 32//31 30//29 33//32 
f 34//33 32//31 35//34 
f 36//35 34//33 37//36 
f 38//37 36//35 39//38 
f 40//39 38//37 41//40 
f 42//41 40//39 43//42 
f 44//43 42//41 45//44 
f 46//45 44//43 47//46 
f 48//47 46//45 49//48 
f 50//49 48//47 51//50 
f 52//51 50//49 53//52 
f 54//53 52//51 55//54 
f 56//55 54//53 57//56 
f 58//57 56//55 59//58 
f 60//59 58//57 61//60 
f 62//61 60//59 63//62 
f 64//63 62//61 65//64 
f 65//64 66//63 64//63 
f 63//62 65//64 62//61 
f 61//60 63//62 60//59 
f 59//58 61//60 58//57 
f 57//56 59//58 56//55 
f 55//54 57//56 54//53 
f 53//52 55//54 52//51 
f 51//50 53//52 50//49 
f 49//48 51//50 48//47 
f 47//46 49//48 46//45 
f 45//44 47//46 44//43 
f 43//42 45//44 42//41 
f 41//40 43//42 40//39 
f 39//38 41//40 38//37 
f 37//36 39//38 36//35 
f 35//34 37//36 34//33 
f 33//32 35//34 32//31 
f 31//30 33//32 30//29 
f 29//28 31//30 28//27 
f 27//26 29//28 26//25 
f 25//24 27//26 24//23 
f 23//22 25//24 22//21 
f 21//20 23//22 20//19 
f 19//18 21//20 18//17 
f 17//16 19//18 16//15 
f 15//14 17//16 14//13 
f 13//12 15//14 12//11 
f 11//10 13//12 10//9 
f 9//8 11//10 8//7 
f 7//6 9//8 6//5 
f 5//4 7//6 4//3 
f 3//2 5//4 1//1 
o mesh1
f 3//63 2//63 67//63 
f 67//63 68//63 3//63 
o mesh2
f 68//65 67//65 69//65 
f 69//65 70//65 68//65 
o mesh3
f 69//66 71//66 72//66 
f 72//66 70//66 69//66 
o mesh4
f 73//67 74//66 75//66 
f 76//68 73//67 77//67 
f 78//69 76//68 79//68 
f 80//70 78//69 81//69 
f 82//71 80//70 83//70 
f 84//72 82//71 85//71 
f 86//73 84//72 87//72 
f 88//74 86//73 89//73 
f 90//75 88//74 91//74 
f 92//76 90//75 93//75 
f 94//77 92//76 95//76 
f 96//78 94//77 97//77 
f 98//79 96//78 99//78 
f 100//80 98//79 101//79 
f 102//81 100//80 103//80 
f 104//82 102//81 105//81 
f 106//83 104//82 107//82 
f 108//84 106//83 109//83 
f 110//85 108//84 111//84 
f 112//86 110//85 113//85 
f 114//87 112//86 115//86 
f 116//88 114//87 117//87 
f 118//89 116//88 119//88 
f 120//90 118//89 121//89 
f 122//91 120//90 123//90 
f 124//92 122//91 125//91 
f 126//93 124//92 127//92 
f 128//94 126//93 129//93 
f 130//95 128//94 131//94 
f 132//96 130//95 133//95 
f 134//97 132//96 135//96 
f 71//98 134//97 136//97 
f 136//97 72//98 71//98 
f 135//96 136//97 134//97 
f 133//95 135//96 132//96 
f 131//94 133//95 130//95 
f 129//93 131//94 128//94 
f 127//92 129//93 126//93 
f 125//91 127//92 124//92 
f 123//90 125//91 122//91 
f 121//89 123//90 120//90 
f 119//88 121//89 118//89 
f 117//87 119//88 116//88 
f 115//86 117//87 114//87 
f 113//85 115//86 112//86 
f 111//84 113//85 110//85 
f 109//83 111//84 108//84 
f 107//82 109//83 106//83 
f 105//81 107//82 104//82 
f 103//80 105//81 102//81 
f 101//79 103//80 100//80 
f 99//78 101//79 98//79 
f 97//77 99//78 96//78 
f 95//76 97//77 94//77 
f 93//75 95//76 92//76 
f 91//74 93//75 90//75 
f 89//73 91//74 88//74 
f 87//72 89//73 86//73 
f 85//71 87//72 84//72 
f 83//70 85//71 82//71 
f 81//69 83//70 80//70 
f 79//68 81//69 78//69 
f 77//67 79//68 76//68 
f 75//66 77//67 73//67 
o mesh5
f 66//99 91//99 137//99 
f 66//99 138//99 139//99 
f 137//99 140//99 66//99 
f 91//99 141//99 142//99 
f 66//99 143//99 144//99 
f 66//99 145//99 146//99 
f 66//99 147//99 138//99 
f 66//99 148//99 149//99 
f 66//99 150//99 151//99 
f 142//99 137//99 91//99 
f 91//99 152//99 153//99 
f 146//99 143//99 66//99 
f 149//99 147//99 66//99 
f 140//99 150//99 66//99 
f 91//99 154//99 155//99 
f 91//99 156//99 152//99 
f 66//99 157//99 158//99 
f 66//99 159//99 145//99 
f 151//99 148//99 66//99 
f 153//99 154//99 91//99 
f 91//99 160//99 161//99 
f 158//99 162//99 66//99 
f 139//99 159//99 66//99 
f 161//99 156//99 91//99 
f 162//99 163//99 66//99 
f 155//99 141//99 91//99 
f 65//99 93//99 91//99 
f 144//99 157//99 66//99 
f 163//99 164//99 66//99 
f 165//99 87//99 85//99 
f 93//99 59//99 57//99 
f 160//99 91//99 89//99 
f 91//99 66//99 65//99 
f 70//99 115//99 113//99 
f 93//99 47//99 45//99 
f 166//99 77//99 75//99 
f 167//99 79//99 77//99 
f 168//99 83//99 81//99 
f 169//99 85//99 83//99 
f 85//99 170//99 165//99 
f 85//99 169//99 170//99 
f 171//99 89//99 87//99 
f 93//99 61//99 59//99 
f 57//99 55//99 93//99 
f 65//99 63//99 93//99 
f 89//99 171//99 160//99 
f 113//99 27//99 70//99 
f 70//99 125//99 123//99 
f 93//99 31//99 29//99 
f 93//99 41//99 39//99 
f 45//99 43//99 93//99 
f 43//99 41//99 93//99 
f 77//99 166//99 167//99 
f 75//99 172//99 166//99 
f 173//99 81//99 79//99 
f 83//99 168//99 169//99 
f 81//99 173//99 168//99 
f 87//99 165//99 171//99 
f 93//99 53//99 51//99 
f 55//99 53//99 93//99 
f 27//99 109//99 107//99 
f 113//99 111//99 27//99 
f 70//99 121//99 119//99 
f 70//99 127//99 125//99 
f 93//99 33//99 31//99 
f 29//99 27//99 93//99 
f 39//99 37//99 93//99 
f 79//99 167//99 173//99 
f 51//99 49//99 93//99 
f 49//99 47//99 93//99 
f 63//99 61//99 93//99 
f 27//99 105//99 103//99 
f 111//99 109//99 27//99 
f 123//99 121//99 70//99 
f 68//99 21//99 19//99 
f 93//99 35//99 33//99 
f 37//99 35//99 93//99 
f 27//99 97//99 95//99 
f 27//99 101//99 99//99 
f 107//99 105//99 27//99 
f 119//99 117//99 70//99 
f 19//99 17//99 68//99 
f 70//99 27//99 25//99 
f 99//99 97//99 27//99 
f 95//99 93//99 27//99 
f 117//99 115//99 70//99 
f 68//99 23//99 21//99 
f 25//99 68//99 70//99 
f 103//99 101//99 27//99 
f 70//99 131//99 129//99 
f 70//99 72//99 136//99 
f 68//99 11//99 9//99 
f 68//99 15//99 13//99 
f 25//99 23//99 68//99 
f 70//99 133//99 131//99 
f 136//99 135//99 70//99 
f 68//99 7//99 5//99 
f 13//99 11//99 68//99 
f 135//99 133//99 70//99 
f 9//99 7//99 68//99 
f 129//99 127//99 70//99 
f 17//99 15//99 68//99 
f 5//99 3//99 68//99 
o mesh6
f 74//100 174//100 175//100 
f 74//100 176//100 177//100 
f 175//100 178//100 74//100 
f 74//100 179//100 180//100 
f 74//100 46//100 181//100 
f 74//100 182//100 183//100 
f 74//100 184//100 185//100 
f 74//100 186//100 176//100 
f 180//100 174//100 74//100 
f 181//100 187//100 74//100 
f 46//100 188//100 189//100 
f 74//100 190//100 182//100 
f 74//100 191//100 192//100 
f 74//100 193//100 184//100 
f 178//100 186//100 74//100 
f 189//100 181//100 46//100 
f 46//100 194//100 195//100 
f 46//100 196//100 197//100 
f 192//100 190//100 74//100 
f 177//100 193//100 74//100 
f 195//100 188//100 46//100 
f 46//100 198//100 196//100 
f 185//100 191//100 74//100 
f 197//100 194//100 46//100 
f 73//100 44//100 46//100 
f 187//100 179//100 74//100 
f 199//100 52//100 54//100 
f 183//100 200//100 74//100 
f 201//100 54//100 56//100 
f 54//100 202//100 199//100 
f 54//100 201//100 202//100 
f 203//100 48//100 50//100 
f 204//100 46//100 48//100 
f 46//100 74//100 73//100 
f 46//100 204//100 198//100 
f 205//100 62//100 64//100 
f 206//100 60//100 62//100 
f 207//100 56//100 58//100 
f 56//100 207//100 201//100 
f 48//100 203//100 204//100 
f 50//100 208//100 203//100 
f 69//100 118//100 120//100 
f 69//100 108//100 110//100 
f 62//100 205//100 206//100 
f 64//100 209//100 205//100 
f 210//100 58//100 60//100 
f 58//100 210//100 207//100 
f 208//100 50//100 52//100 
f 44//100 82//100 84//100 
f 44//100 78//100 80//100 
f 73//100 76//100 44//100 
f 90//100 24//100 26//100 
f 120//100 122//100 69//100 
f 69//100 114//100 116//100 
f 69//100 106//100 108//100 
f 69//100 102//100 104//100 
f 60//100 206//100 210//100 
f 52//100 199//100 208//100 
f 80//100 82//100 44//100 
f 84//100 86//100 44//100 
f 90//100 40//100 42//100 
f 26//100 28//100 90//100 
f 28//100 30//100 90//100 
f 116//100 118//100 69//100 
f 104//100 106//100 69//100 
f 69//100 98//100 100//100 
f 24//100 90//100 92//100 
f 76//100 78//100 44//100 
f 90//100 38//100 40//100 
f 42//100 44//100 90//100 
f 90//100 34//100 36//100 
f 30//100 32//100 90//100 
f 69//100 112//100 114//100 
f 100//100 102//100 69//100 
f 69//100 94//100 96//100 
f 92//100 69//100 24//100 
f 92//100 94//100 69//100 
f 44//100 86//100 88//100 
f 36//100 38//100 90//100 
f 32//100 34//100 90//100 
f 67//100 14//100 16//100 
f 110//100 112//100 69//100 
f 96//100 98//100 69//100 
f 69//100 67//100 22//100 
f 67//100 12//100 14//100 
f 69//100 132//100 134//100 
f 69//100 124//100 126//100 
f 122//100 124//100 69//100 
f 67//100 20//100 22//100 
f 16//100 18//100 67//100 
f 69//100 130//100 132//100 
f 126//100 128//100 69//100 
f 88//100 90//100 44//100 
f 18//100 20//100 67//100 
f 67//100 8//100 10//100 
f 67//100 4//100 6//100 
f 128//100 130//100 69//100 
f 22//100 24//100 69//100 
f 6//100 8//100 67//100 
f 67//100 2//100 1//100 
f 1//100 4//100 67//100 
f 10//100 12//100 67//100 
f 134//100 71//100 69//100 
o mesh7
f 74//101 200//101 172//101 
f 172//101 75//101 74//101 
o mesh8
f 209//102 164//102 163//103 
f 205//103 163//103 162//104 
f 206//104 162//104 158//105 
f 210//105 158//105 157//106 
f 207//106 157//106 144//107 
f 201//107 144//107 143//108 
f 202//108 143//108 146//109 
f 199//109 146//109 145//110 
f 208//110 145//110 159//111 
f 203//111 159//111 139//112 
f 204//112 139//112 138//113 
f 198//113 138//113 147//114 
f 196//114 147//114 149//115 
f 197//115 149//115 148//116 
f 194//116 148//116 151//117 
f 195//117 151//117 150//118 
f 188//118 150//118 140//119 
f 189//119 140//119 137//120 
f 181//120 137//120 142//121 
f 187//121 142//121 141//122 
f 179//122 141//122 155//123 
f 180//123 155//123 154//124 
f 174//124 154//124 153//125 
f 175//125 153//125 152//126 
f 178//126 152//126 156//127 
f 186//127 156//127 161//128 
f 176//128 161//128 160//129 
f 177//129 160//129 171//130 
f 193//130 171//130 165//131 
f 184//131 165//131 170//132 
f 185//132 170//132 169//133 
f 191//133 169//133 168//134 
f 192//134 168//134 173//135 
f 190//135 173//135 167//136 
f 182//136 167//136 166//137 
f 183//137 166//137 172//138 
f 172//138 200//138 183//137 
f 166//137 183//137 182//136 
f 167//136 182//136 190//135 
f 173//135 190//135 192//134 
f 168//134 192//134 191//133 
f 169//133 191//133 185//132 
f 170//132 185//132 184//131 
f 165//131 184//131 193//130 
f 171//130 193//130 177//129 
f 160//129 177//129 176//128 
f 161//128 176//128 186//127 
f 156//127 186//127 178//126 
f 152//126 178//126 175//125 
f 153//125 175//125 174//124 
f 154//124 174//124 180//123 
f 155//123 180//123 179//122 
f 141//122 179//122 187//121 
f 142//121 187//121 181//120 
f 137//120 181//120 189//119 
f 140//119 189//119 188//118 
f 150//118 188//118 195//117 
f 151//117 195//117 194//116 
f 148//116 194//116 197//115 
f 149//115 197//115 196//114 
f 147//114 196//114 198//113 
f 138//113 198//113 204//112 
f 139//112 204//112 203//111 
f 159//111 203//111 208//110 
f 145//110 208//110 199//109 
f 146//109 199//109 202//108 
f 143//108 202//108 201//107 
f 144//107 201//107 207//106 
f 157//106 207//106 210//105 
f 158//105 210//105 206//104 
f 162//104 206//104 205//103 
f 163//103 205//103 209//102 
o mesh9
f 164//139 209//139 64//139 
f 64//139 66//139 164//139 
