# File units = meters
mtllib Part Studio 47 - wider post.mtl
g wider post
v -0.3048 0.3048 1.5748 
v 0 -6.93889e-18 1.60147 
v 0.3048 0.3048 1.5748 
v -0.3048 -0.3048 1.5748 
v 0.3048 -0.3048 1.5748 
v -0.3048 0.3048 1.4732 
v -0.3048 -0.3048 1.4732 
v 0.3048 0.3048 1.4732 
v 0.3048 -0.3048 1.4732 
v 0.275471 -0.275471 1.4732 
v -0.275471 -0.275471 1.4732 
v -0.275471 0.275471 1.4732 
v 0.275471 0.275471 1.4732 
v 0.275471 -0.275471 0.127 
v 0.275471 0.275471 0.127 
v -0.275471 0.275471 0.127 
v -0.275471 -0.275471 0.127 
v 0.3048 0.3048 0.0762 
v -0.3048 0.3048 0.0762 
v 0.3048 -0.3048 0.0762 
v -0.3048 -0.3048 0.0762 
v 0.3048 0.3048 0 
v -0.3048 0.3048 0 
v 0.3048 -0.3048 0 
v -0.3048 -0.3048 0 
vn 0 0.0871557 0.996195 
vn -0.0871557 1.58731e-17 0.996195 
vn 0 -0.0871557 0.996195 
vn -1 1.82123e-16 0 
vn 0 1 0 
vn 0 -1 0 
vn 1 -1.82123e-16 0 
vn 0.0871557 -1.58731e-17 0.996195 
vn 0 0 -1 
vn 1 0 0 
vn 0 1 0 
vn -1 0 0 
vn 0 0.866025 0.5 
vn 0 -1 0 
vn 0.866025 0 0.5 
vn -0.866025 0 0.5 
vn 0 1 0 
vn 1 0 0 
vn -1 0 0 
vn 0 -1 0 
vn 0 0 -1 
vn 0 -0.866025 0.5 
usemtl 0.615686_0.811765_0.929412_0.000000_0.000000
o mesh0
f 1//1 2//1 3//1 
o mesh1
f 4//2 2//2 1//2 
o mesh2
f 5//3 2//3 4//3 
o mesh3
f 1//4 6//4 7//4 
f 7//4 4//4 1//4 
o mesh4
f 3//5 8//5 6//5 
f 6//5 1//5 3//5 
o mesh5
f 4//6 7//6 9//6 
f 9//6 5//6 4//6 
o mesh6
f 5//7 9//7 8//7 
f 8//7 3//7 5//7 
o mesh7
f 3//8 2//8 5//8 
o mesh8
f 8//9 9//9 10//9 
f 9//9 7//9 11//9 
f 11//9 10//9 9//9 
f 7//9 6//9 12//9 
f 6//9 8//9 13//9 
f 12//9 11//9 7//9 
f 10//9 13//9 8//9 
f 13//9 12//9 6//9 
o mesh9
f 10//10 14//10 15//10 
f 15//10 13//10 10//10 
o mesh10
f 13//11 15//11 16//11 
f 16//11 12//11 13//11 
o mesh11
f 12//12 16//12 17//12 
f 17//12 11//12 12//12 
o mesh12
f 18//13 19//13 16//13 
f 16//13 15//13 18//13 
o mesh13
f 11//14 17//14 14//14 
f 14//14 10//14 11//14 
o mesh14
f 20//15 18//15 15//15 
f 15//15 14//15 20//15 
o mesh15
f 19//16 21//16 17//16 
f 17//16 16//16 19//16 
o mesh16
f 18//17 22//17 23//17 
f 23//17 19//17 18//17 
o mesh17
f 20//18 24//18 22//18 
f 22//18 18//18 20//18 
o mesh18
f 19//19 23//19 25//19 
f 25//19 21//19 19//19 
o mesh19
f 21//20 25//20 24//20 
f 24//20 20//20 21//20 
o mesh20
f 23//21 22//21 24//21 
f 24//21 25//21 23//21 
o mesh21
f 21//22 20//22 14//22 
f 14//22 17//22 21//22 
