# Blender v2.93.4 OBJ File: 'tombstone_test.blend'
# www.blender.org
mtllib tombstone_test.mtl
o Cube_Cube.001
v -0.050800 -0.228600 0.165100
v -0.050800 -0.228600 -0.165100
v 0.050800 -0.228600 0.165100
v 0.050800 -0.228600 -0.165100
v 0.050800 0.219815 -0.089195
v -0.050800 0.219815 -0.089195
v 0.050800 0.222971 -0.071522
v -0.050800 0.222971 -0.071522
v 0.050800 0.206223 -0.141283
v -0.050800 0.206223 -0.141283
v 0.050800 0.211435 -0.124103
v -0.050800 0.211435 -0.124103
v -0.050800 0.197658 -0.165100
v 0.050800 0.197658 -0.165100
v 0.050800 0.200341 -0.158245
v -0.050800 0.200341 -0.158245
v 0.050800 0.215968 -0.106731
v -0.050800 0.215968 -0.106731
v 0.050800 0.227191 0.035871
v -0.050800 0.227191 0.035871
v 0.050800 0.225431 0.053737
v -0.050800 0.225431 0.053737
v 0.050800 0.227191 -0.035871
v -0.050800 0.227191 -0.035872
v 0.050800 0.228248 0.017949
v -0.050800 0.228248 0.017949
v 0.050800 0.228600 0.000000
v -0.050800 0.228600 -0.000000
v 0.050800 0.225431 -0.053738
v -0.050800 0.225431 -0.053738
v 0.050800 0.228248 -0.017950
v -0.050800 0.228248 -0.017950
v 0.050800 0.222971 0.071521
v -0.050800 0.222971 0.071521
v 0.050800 0.219815 0.089194
v -0.050800 0.219815 0.089194
v 0.050800 0.215968 0.106730
v -0.050800 0.215968 0.106730
v 0.050800 0.211435 0.124102
v -0.050800 0.211435 0.124102
v 0.050800 0.206223 0.141282
v -0.050800 0.206223 0.141282
v 0.050800 0.200341 0.158244
v -0.050800 0.200341 0.158244
v 0.050800 0.197658 0.165100
v -0.050800 0.197658 0.165100
vt 0.957977 0.224726
vt 0.989043 0.904844
vt 0.978652 0.909808
vt 0.952967 0.920614
vt 0.926973 0.930107
vt 0.900712 0.938271
vt 0.874223 0.945094
vt 0.847548 0.950566
vt 0.820727 0.954678
vt 0.793803 0.957424
vt 0.766815 0.958799
vt 0.739809 0.958802
vt 0.712822 0.957432
vt 0.685897 0.954691
vt 0.659075 0.950585
vt 0.632399 0.945118
vt 0.605910 0.938300
vt 0.579648 0.930140
vt 0.553653 0.920653
vt 0.527966 0.909851
vt 0.502627 0.897753
vt 0.492395 0.892268
vt 0.523689 0.223791
vt 0.989722 0.091580
vt 0.636724 0.091580
vt 0.636724 0.007442
vt 0.989722 0.007442
vt 0.457749 0.235799
vt 0.463359 0.952327
vt 0.453827 0.956274
vt 0.430295 0.964761
vt 0.406513 0.972098
vt 0.382515 0.978273
vt 0.358341 0.983276
vt 0.334027 0.987099
vt 0.309610 0.989738
vt 0.285128 0.991188
vt 0.260620 0.991446
vt 0.236122 0.990512
vt 0.211673 0.988388
vt 0.187310 0.985076
vt 0.163070 0.980583
vt 0.138992 0.974914
vt 0.115112 0.968079
vt 0.091467 0.960089
vt 0.068093 0.950955
vt 0.045027 0.940691
vt 0.022304 0.929314
vt 0.013141 0.924199
vt 0.044484 0.235799
vt 0.010277 0.007442
vt 0.363275 0.007442
vt 0.363275 0.091580
vt 0.010277 0.091580
vt 0.362594 0.193940
vt 0.362594 0.109382
vt 0.637406 0.109382
vt 0.637406 0.193940
vt 0.485136 0.091580
vt 0.470294 0.091580
vt 0.470294 0.007442
vt 0.485136 0.007442
vt 0.602773 0.091580
vt 0.588387 0.091580
vt 0.588387 0.007442
vt 0.602773 0.007442
vt 0.383000 0.091580
vt 0.368953 0.091580
vt 0.368953 0.007442
vt 0.383000 0.007442
vt 0.573865 0.091580
vt 0.573865 0.007442
vt 0.544502 0.091580
vt 0.529706 0.091580
vt 0.529706 0.007442
vt 0.544502 0.007442
vt 0.617000 0.091580
vt 0.617000 0.007442
vt 0.559229 0.091580
vt 0.559229 0.007442
vt 0.411613 0.091580
vt 0.397227 0.091580
vt 0.397227 0.007442
vt 0.411613 0.007442
vt 0.500000 0.091580
vt 0.500000 0.007442
vt 0.455498 0.091580
vt 0.440771 0.091580
vt 0.440771 0.007442
vt 0.455498 0.007442
vt 0.631047 0.091580
vt 0.631047 0.007442
vt 0.514864 0.091580
vt 0.514864 0.007442
vt 0.426135 0.091580
vt 0.426135 0.007442
vn -1.0000 -0.0000 -0.0000
vn 0.0000 0.0000 -1.0000
vn 1.0000 -0.0000 -0.0000
vn 0.0000 0.0000 1.0000
vn 0.0000 -1.0000 0.0000
vn -0.0000 0.9983 0.0589
vn 0.0000 0.9676 -0.2525
vn 0.0000 0.9448 0.3276
vn 0.0000 0.9768 -0.2143
vn 0.0000 0.9952 -0.0980
vn 0.0000 0.9569 -0.2903
vn 0.0000 0.9906 -0.1370
vn 0.0000 0.9312 0.3645
vn 0.0000 0.9676 0.2525
vn -0.0000 0.9998 0.0196
vn -0.0000 0.9906 0.1370
vn 0.0000 0.9448 -0.3276
vn -0.0000 0.9952 0.0980
vn 0.0000 0.9312 -0.3645
vn 0.0000 0.9998 -0.0196
vn 0.0000 0.9768 0.2143
vn 0.0000 0.9569 0.2903
vn -0.0000 0.9844 0.1758
vn 0.0000 0.9983 -0.0589
vn 0.0000 0.9844 -0.1758
g Cube_Cube.001_Material.001
usemtl Material.001
s off
f 1/1/1 46/2/1 44/3/1 42/4/1 40/5/1 38/6/1 36/7/1 34/8/1 22/9/1 20/10/1 26/11/1 28/12/1 32/13/1 24/14/1 30/15/1 8/16/1 6/17/1 18/18/1 12/19/1 10/20/1 16/21/1 13/22/1 2/23/1
f 2/24/2 13/25/2 14/26/2 4/27/2
f 4/28/3 14/29/3 15/30/3 9/31/3 11/32/3 17/33/3 5/34/3 7/35/3 29/36/3 23/37/3 31/38/3 27/39/3 25/40/3 19/41/3 21/42/3 33/43/3 35/44/3 37/45/3 39/46/3 41/47/3 43/48/3 45/49/3 3/50/3
f 3/51/4 45/52/4 46/53/4 1/54/4
f 2/55/5 4/56/5 3/57/5 1/58/5
f 26/59/6 20/60/6 19/61/6 25/62/6
f 12/63/7 18/64/7 17/65/7 11/66/7
f 42/67/8 44/68/8 43/69/8 41/70/8
f 18/64/9 6/71/9 5/72/9 17/65/9
f 30/73/10 24/74/10 23/75/10 29/76/10
f 10/77/11 12/63/11 11/66/11 9/78/11
f 8/79/12 30/73/12 29/76/12 7/80/12
f 44/68/13 46/53/13 45/52/13 43/69/13
f 38/81/14 40/82/14 39/83/14 37/84/14
f 28/85/15 26/59/15 25/62/15 27/86/15
f 22/87/16 34/88/16 33/89/16 21/90/16
f 16/91/17 10/77/17 9/78/17 15/92/17
f 20/60/18 22/87/18 21/90/18 19/61/18
f 15/92/19 14/26/19 13/25/19 16/91/19
f 32/93/20 28/85/20 27/86/20 31/94/20
f 36/95/21 38/81/21 37/84/21 35/96/21
f 40/82/22 42/67/22 41/70/22 39/83/22
f 34/88/23 36/95/23 35/96/23 33/89/23
f 24/74/24 32/93/24 31/94/24 23/75/24
f 6/71/25 8/79/25 7/80/25 5/72/25
