# File units = meters
mtllib Part Studio 49 - building.mtl
g building
v -0.3048 0.1524 0.200172 
v 0.3048 0.1524 0.200172 
v 0.3048 0.1524 0 
v -0.3048 0.1524 0 
v 0.3048 -0.1524 0 
v -0.3048 -0.1524 0 
v -0.3048 -2.77556e-17 0.258794 
v -0.3048 -0.1524 0.200172 
v 0.3048 -2.77556e-17 0.258794 
v 0.3048 -0.1524 0.200172 
v -0.3302 -2.77556e-17 0.258794 
v -0.3302 0.192975 0.184565 
v 0.3302 0.192975 0.184565 
v 0.3302 -2.77556e-17 0.258794 
v 0.3302 -0.192975 0.184565 
v -0.3302 -0.192975 0.184565 
v -0.3302 0.192975 0.200172 
v 0.3302 0.192975 0.200172 
v 0.3302 -0.192975 0.200172 
v 0.3302 8.32667e-17 0.274401 
v -0.3302 -0.192975 0.200172 
v -0.3302 8.32667e-17 0.274401 
vn 0 1 -1.38658e-16 
vn 0 0 -1 
vn -1 0 0 
vn 1 0 0 
vn 0 -1 -1.38658e-16 
vn 0 -0.359012 -0.933333 
vn 0 0.359012 -0.933333 
vn 0 1 0 
vn 1 0 0 
vn -1 0 0 
vn 0 0.359012 0.933333 
vn 0 -0.359012 0.933333 
vn 0 -1 0 
usemtl 0.615686_0.811765_0.929412_0.000000_0.000000
o mesh0
f 1//1 2//1 3//1 
f 3//1 4//1 1//1 
o mesh1
f 4//2 3//2 5//2 
f 5//2 6//2 4//2 
o mesh2
f 6//3 7//3 1//3 
f 6//3 8//3 7//3 
f 1//3 4//3 6//3 
o mesh3
f 5//4 3//4 2//4 
f 2//4 9//4 5//4 
f 9//4 10//4 5//4 
o mesh4
f 6//5 5//5 10//5 
f 10//5 8//5 6//5 
o mesh5
f 11//6 12//6 1//6 
f 12//6 13//6 2//6 
f 2//6 1//6 12//6 
f 14//6 9//6 2//6 
f 2//6 13//6 14//6 
f 1//6 7//6 11//6 
o mesh6
f 15//7 16//7 8//7 
f 11//7 7//7 8//7 
f 14//7 15//7 10//7 
f 8//7 16//7 11//7 
f 8//7 10//7 15//7 
f 10//7 9//7 14//7 
o mesh7
f 13//8 12//8 17//8 
f 17//8 18//8 13//8 
o mesh8
f 14//9 13//9 18//9 
f 19//9 15//9 14//9 
f 14//9 20//9 19//9 
f 18//9 20//9 14//9 
o mesh9
f 21//10 22//10 11//10 
f 11//10 22//10 17//10 
f 17//10 12//10 11//10 
f 11//10 16//10 21//10 
o mesh10
f 18//11 17//11 22//11 
f 22//11 20//11 18//11 
o mesh11
f 20//12 22//12 21//12 
f 21//12 19//12 20//12 
o mesh12
f 19//13 21//13 16//13 
f 16//13 15//13 19//13 
